<svg width="150" height="150" viewBox="0 0 150 150" fill="none" xmlns="http://www.w3.org/2000/svg">
<path d="M110.604 38.5781L71.1997 61.3281L67.8439 59.3906L78.8586 26.875L45.1919 46.3125L41.8631 44.3906L81.2673 21.6406L84.5961 23.5625L73.6354 56.1094L107.302 36.6719L110.604 38.5781Z" fill="#252525"/>
<path d="M45.7779 110.109L36.847 104.953L36.9011 101.703L45.7779 106.828C48.6105 108.464 51.0462 109.141 53.085 108.859C55.1418 108.568 56.7295 107.443 57.8481 105.484C58.9667 103.526 59.5261 100.828 59.5261 97.3906L59.5261 93.1406C59.5261 90.5156 59.2013 87.9531 58.5518 85.4531C57.9203 82.9635 57.0092 80.625 55.8184 78.4375C54.6276 76.2292 53.2023 74.2396 51.5424 72.4688C49.9005 70.7083 48.0602 69.2396 46.0215 68.0625L36.6846 62.6719L36.6846 59.3594L46.0215 64.75C48.4752 66.1667 50.7215 67.9531 52.7602 70.1094C54.817 72.2552 56.5942 74.6771 58.0917 77.375C59.6072 80.0625 60.771 82.9115 61.5829 85.9219C62.4128 88.9427 62.8278 92.0156 62.8278 95.1406L62.8278 99.2969C62.8278 102.422 62.4128 105.016 61.5829 107.078C60.771 109.151 59.6072 110.656 58.0917 111.594C56.5762 112.531 54.781 112.891 52.7061 112.672C50.6312 112.432 48.3218 111.578 45.7779 110.109ZM38.3355 60.3125L38.3355 105.812L35.0067 103.891L35.0067 58.3906L38.3355 60.3125Z" fill="#252525"/>
<path d="M114.307 94.0469C114.307 92.7969 114.126 91.7865 113.766 91.0156C113.405 90.2448 112.809 89.7135 111.979 89.4219C111.168 89.099 110.067 89.0052 108.678 89.1406C107.306 89.2448 105.592 89.5573 103.536 90.0781C101.569 90.5677 99.7919 90.8854 98.2042 91.0312C96.6165 91.1771 95.2543 91.0781 94.1176 90.7344C92.999 90.3802 92.142 89.7083 91.5466 88.7188C90.9512 87.7083 90.6535 86.3073 90.6535 84.5156C90.6535 82.7656 90.9783 80.9844 91.6278 79.1719C92.2773 77.3594 93.1885 75.5938 94.3612 73.875C95.552 72.1458 96.9503 70.5365 98.556 69.0469C100.18 67.5469 101.957 66.2396 103.887 65.125C106.648 63.5312 109.03 62.7604 111.032 62.8125C113.053 62.8542 114.614 63.5885 115.714 65.0156C116.833 66.4115 117.392 68.3802 117.392 70.9219L114.063 72.8438C114.063 70.8646 113.657 69.3385 112.845 68.2656C112.052 67.1615 110.897 66.6094 109.381 66.6094C107.884 66.5781 106.053 67.1875 103.887 68.4375C101.722 69.6875 99.9002 71.125 98.4207 72.75C96.9593 74.3438 95.8497 75.9948 95.0919 77.7031C94.3522 79.3802 93.9823 80.9896 93.9823 82.5312C93.9823 83.6146 94.1628 84.5104 94.5236 85.2188C94.8844 85.9062 95.4708 86.4115 96.2827 86.7344C97.1127 87.026 98.2042 87.125 99.5574 87.0312C100.911 86.9167 102.579 86.5885 104.564 86.0469C106.657 85.5052 108.515 85.1719 110.139 85.0469C111.763 84.9219 113.134 85.0677 114.253 85.4844C115.371 85.8802 116.219 86.6094 116.797 87.6719C117.374 88.7344 117.663 90.1927 117.663 92.0469C117.663 93.901 117.32 95.7656 116.634 97.6406C115.967 99.4844 115.02 101.271 113.793 103C112.584 104.719 111.149 106.328 109.49 107.828C107.848 109.318 106.053 110.625 104.104 111.75C102.354 112.76 100.613 113.505 98.8808 113.984C97.1487 114.464 95.561 114.578 94.1176 114.328C92.6923 114.047 91.5466 113.292 90.6806 112.062C89.8326 110.823 89.4086 109.005 89.4086 106.609L92.7104 104.703C92.7104 106.62 93.0441 108.042 93.7117 108.969C94.3793 109.896 95.2633 110.448 96.3639 110.625C97.4825 110.792 98.7094 110.677 100.045 110.281C101.398 109.854 102.751 109.25 104.104 108.469C106.179 107.271 107.974 105.88 109.49 104.297C111.023 102.703 112.205 101.031 113.035 99.2812C113.883 97.5 114.307 95.7552 114.307 94.0469Z" fill="#252525"/>
</svg>
