<svg width="150" height="150" viewBox="0 0 150 150" fill="none" xmlns="http://www.w3.org/2000/svg">
<path d="M9.554 63V38.85H12.682V45.428L12.36 44.278C13.0347 42.438 14.1693 41.0427 15.764 40.092C17.3587 39.1107 19.3367 38.62 21.698 38.62V41.794C21.5753 41.794 21.4527 41.794 21.33 41.794C21.2073 41.7633 21.0847 41.748 20.962 41.748C18.4167 41.748 16.4233 42.53 14.982 44.094C13.5407 45.6273 12.82 47.82 12.82 50.672V63H9.554ZM37.9989 63.23C35.9442 63.23 34.1502 62.8467 32.6169 62.08C31.0836 61.3133 29.8876 60.1633 29.0289 58.63C28.2009 57.0967 27.7869 55.18 27.7869 52.88V38.85H31.0529V52.512C31.0529 55.088 31.6816 57.0353 32.9389 58.354C34.2269 59.642 36.0209 60.286 38.3209 60.286C40.0076 60.286 41.4642 59.9487 42.6909 59.274C43.9482 58.5687 44.8989 57.5567 45.5429 56.238C46.2176 54.9193 46.5549 53.34 46.5549 51.5V38.85H49.8209V63H46.6929V56.376L47.1989 57.572C46.4322 59.3507 45.2362 60.746 43.6109 61.758C42.0162 62.7393 40.1456 63.23 37.9989 63.23ZM71.3891 63.23C69.2731 63.23 67.3718 62.7547 65.6851 61.804C63.9985 60.8227 62.6645 59.412 61.6831 57.572C60.7018 55.732 60.2111 53.5087 60.2111 50.902C60.2111 48.2647 60.7018 46.0413 61.6831 44.232C62.6951 42.392 64.0445 40.9967 65.7311 40.046C67.4178 39.0953 69.3038 38.62 71.3891 38.62C73.6891 38.62 75.7438 39.1413 77.5531 40.184C79.3931 41.196 80.8345 42.622 81.8771 44.462C82.9198 46.302 83.4411 48.4487 83.4411 50.902C83.4411 53.3247 82.9198 55.4713 81.8771 57.342C80.8345 59.182 79.3931 60.6233 77.5531 61.666C75.7438 62.7087 73.6891 63.23 71.3891 63.23ZM58.9231 63V28.868H62.1891V45.98L61.7291 50.856L62.0511 55.732V63H58.9231ZM71.1591 60.332C72.8765 60.332 74.4098 59.9487 75.7591 59.182C77.1085 58.3847 78.1818 57.2807 78.9791 55.87C79.7765 54.4287 80.1751 52.7727 80.1751 50.902C80.1751 49.0007 79.7765 47.3447 78.9791 45.934C78.1818 44.5233 77.1085 43.4347 75.7591 42.668C74.4098 41.8707 72.8765 41.472 71.1591 41.472C69.4418 41.472 67.8931 41.8707 66.5131 42.668C65.1638 43.4347 64.0905 44.5233 63.2931 45.934C62.5265 47.3447 62.1431 49.0007 62.1431 50.902C62.1431 52.7727 62.5265 54.4287 63.2931 55.87C64.0905 57.2807 65.1638 58.3847 66.5131 59.182C67.8931 59.9487 69.4418 60.332 71.1591 60.332ZM100.357 63.23C97.8423 63.23 95.6343 62.7087 93.7329 61.666C91.8316 60.5927 90.3443 59.136 89.2709 57.296C88.1976 55.4253 87.6609 53.294 87.6609 50.902C87.6609 48.51 88.1669 46.394 89.1789 44.554C90.2216 42.714 91.6323 41.2727 93.4109 40.23C95.2203 39.1567 97.2443 38.62 99.4829 38.62C101.752 38.62 103.761 39.1413 105.509 40.184C107.288 41.196 108.683 42.6373 109.695 44.508C110.707 46.348 111.213 48.4793 111.213 50.902C111.213 51.0553 111.198 51.224 111.167 51.408C111.167 51.5613 111.167 51.73 111.167 51.914H90.1449V49.476H109.419L108.131 50.442C108.131 48.694 107.748 47.1453 106.981 45.796C106.245 44.416 105.233 43.3427 103.945 42.576C102.657 41.8093 101.17 41.426 99.4829 41.426C97.8269 41.426 96.3396 41.8093 95.0209 42.576C93.7023 43.3427 92.6749 44.416 91.9389 45.796C91.2029 47.176 90.8349 48.7553 90.8349 50.534V51.04C90.8349 52.88 91.2336 54.5053 92.0309 55.916C92.8589 57.296 93.9936 58.3847 95.4349 59.182C96.9069 59.9487 98.5783 60.332 100.449 60.332C101.921 60.332 103.286 60.0713 104.543 59.55C105.831 59.0287 106.935 58.2313 107.855 57.158L109.695 59.274C108.622 60.562 107.272 61.5433 105.647 62.218C104.052 62.8927 102.289 63.23 100.357 63.23ZM130.189 38.62C132.151 38.62 133.869 39.0033 135.341 39.77C136.843 40.506 138.009 41.6407 138.837 43.174C139.695 44.7073 140.125 46.6393 140.125 48.97V63H136.859V49.292C136.859 46.7467 136.215 44.83 134.927 43.542C133.669 42.2233 131.891 41.564 129.591 41.564C127.873 41.564 126.371 41.9167 125.083 42.622C123.825 43.2967 122.844 44.2933 122.139 45.612C121.464 46.9 121.127 48.464 121.127 50.304V63H117.861V38.85H120.989V45.474L120.483 44.232C121.249 42.484 122.476 41.1193 124.163 40.138C125.849 39.126 127.858 38.62 130.189 38.62Z" fill="#1B4B75"/>
<path d="M24.04 119.23C22.0467 119.23 20.1607 118.954 18.382 118.402C16.6033 117.819 15.208 117.099 14.196 116.24L15.668 113.664C16.6493 114.4 17.9067 115.044 19.44 115.596C20.9733 116.117 22.5833 116.378 24.27 116.378C26.57 116.378 28.226 116.025 29.238 115.32C30.25 114.584 30.756 113.618 30.756 112.422C30.756 111.533 30.4647 110.843 29.882 110.352C29.33 109.831 28.594 109.447 27.674 109.202C26.754 108.926 25.7267 108.696 24.592 108.512C23.4573 108.328 22.3227 108.113 21.188 107.868C20.084 107.623 19.072 107.27 18.152 106.81C17.232 106.319 16.4807 105.66 15.898 104.832C15.346 104.004 15.07 102.9 15.07 101.52C15.07 100.201 15.438 99.0207 16.174 97.978C16.91 96.9353 17.9833 96.1227 19.394 95.54C20.8353 94.9267 22.5833 94.62 24.638 94.62C26.202 94.62 27.766 94.8347 29.33 95.264C30.894 95.6627 32.182 96.1993 33.194 96.874L31.768 99.496C30.6947 98.76 29.5447 98.2387 28.318 97.932C27.0913 97.5947 25.8647 97.426 24.638 97.426C22.4607 97.426 20.8507 97.8093 19.808 98.576C18.796 99.312 18.29 100.263 18.29 101.428C18.29 102.348 18.566 103.069 19.118 103.59C19.7007 104.111 20.452 104.525 21.372 104.832C22.3227 105.108 23.35 105.338 24.454 105.522C25.5887 105.706 26.708 105.936 27.812 106.212C28.9467 106.457 29.974 106.81 30.894 107.27C31.8447 107.699 32.596 108.328 33.148 109.156C33.7307 109.953 34.022 111.011 34.022 112.33C34.022 113.741 33.6233 114.967 32.826 116.01C32.0593 117.022 30.9247 117.819 29.422 118.402C27.95 118.954 26.156 119.23 24.04 119.23ZM52.3429 94.62C54.3056 94.62 56.0229 95.0033 57.4949 95.77C58.9976 96.506 60.1629 97.6407 60.9909 99.174C61.8496 100.707 62.2789 102.639 62.2789 104.97V119H59.0129V105.292C59.0129 102.747 58.3689 100.83 57.0809 99.542C55.8236 98.2233 54.0449 97.564 51.7449 97.564C50.0276 97.564 48.5249 97.9167 47.2369 98.622C45.9796 99.2967 44.9983 100.293 44.2929 101.612C43.6183 102.9 43.2809 104.464 43.2809 106.304V119H40.0149V84.868H43.2809V101.474L42.6369 100.232C43.4036 98.484 44.6303 97.1193 46.3169 96.138C48.0036 95.126 50.0123 94.62 52.3429 94.62ZM86.2349 119V113.664L86.0969 112.79V103.866C86.0969 101.811 85.5142 100.232 84.3489 99.128C83.2142 98.024 81.5122 97.472 79.2429 97.472C77.6789 97.472 76.1915 97.7327 74.7809 98.254C73.3702 98.7753 72.1742 99.4653 71.1929 100.324L69.7209 97.886C70.9475 96.8433 72.4195 96.046 74.1369 95.494C75.8542 94.9113 77.6635 94.62 79.5649 94.62C82.6929 94.62 85.1002 95.402 86.7869 96.966C88.5042 98.4993 89.3629 100.845 89.3629 104.004V119H86.2349ZM77.9089 119.23C76.0995 119.23 74.5202 118.939 73.1709 118.356C71.8522 117.743 70.8402 116.915 70.1349 115.872C69.4295 114.799 69.0769 113.572 69.0769 112.192C69.0769 110.935 69.3682 109.8 69.9509 108.788C70.5642 107.745 71.5455 106.917 72.8949 106.304C74.2749 105.66 76.1149 105.338 78.4149 105.338H86.7409V107.776H78.5069C76.1762 107.776 74.5509 108.19 73.6309 109.018C72.7415 109.846 72.2969 110.873 72.2969 112.1C72.2969 113.48 72.8335 114.584 73.9069 115.412C74.9802 116.24 76.4829 116.654 78.4149 116.654C80.2549 116.654 81.8342 116.24 83.1529 115.412C84.5022 114.553 85.4835 113.327 86.0969 111.732L86.8329 113.986C86.2195 115.581 85.1462 116.853 83.6129 117.804C82.1102 118.755 80.2089 119.23 77.9089 119.23ZM110.562 94.62C112.524 94.62 114.242 95.0033 115.714 95.77C117.216 96.506 118.382 97.6407 119.21 99.174C120.068 100.707 120.498 102.639 120.498 104.97V119H117.232V105.292C117.232 102.747 116.588 100.83 115.3 99.542C114.042 98.2233 112.264 97.564 109.964 97.564C108.246 97.564 106.744 97.9167 105.456 98.622C104.198 99.2967 103.217 100.293 102.512 101.612C101.837 102.9 101.5 104.464 101.5 106.304V119H98.2337V84.868H101.5V101.474L100.856 100.232C101.622 98.484 102.849 97.1193 104.536 96.138C106.222 95.126 108.231 94.62 110.562 94.62ZM129.32 119V94.85H132.586V119H129.32ZM130.976 89.514C130.301 89.514 129.734 89.284 129.274 88.824C128.814 88.364 128.584 87.812 128.584 87.168C128.584 86.524 128.814 85.9873 129.274 85.558C129.734 85.098 130.301 84.868 130.976 84.868C131.65 84.868 132.218 85.0827 132.678 85.512C133.138 85.9413 133.368 86.478 133.368 87.122C133.368 87.7967 133.138 88.364 132.678 88.824C132.248 89.284 131.681 89.514 130.976 89.514Z" fill="#1B4B75"/>
</svg>
