<svg width="150" height="150" viewBox="0 0 150 150" fill="none" xmlns="http://www.w3.org/2000/svg">
<path d="M32.97 67V51.25H35.01V55.54L34.8 54.79C35.24 53.59 35.98 52.68 37.02 52.06C38.06 51.42 39.35 51.1 40.89 51.1V53.17C40.81 53.17 40.73 53.17 40.65 53.17C40.57 53.15 40.49 53.14 40.41 53.14C38.75 53.14 37.45 53.65 36.51 54.67C35.57 55.67 35.1 57.1 35.1 58.96V67H32.97ZM51.521 67.15C50.181 67.15 49.011 66.9 48.011 66.4C47.011 65.9 46.231 65.15 45.671 64.15C45.131 63.15 44.861 61.9 44.861 60.4V51.25H46.991V60.16C46.991 61.84 47.401 63.11 48.221 63.97C49.061 64.81 50.231 65.23 51.731 65.23C52.831 65.23 53.781 65.01 54.581 64.57C55.401 64.11 56.021 63.45 56.441 62.59C56.881 61.73 57.101 60.7 57.101 59.5V51.25H59.231V67H57.191V62.68L57.521 63.46C57.021 64.62 56.241 65.53 55.181 66.19C54.141 66.83 52.921 67.15 51.521 67.15ZM73.2973 67.15C71.9173 67.15 70.6773 66.84 69.5773 66.22C68.4773 65.58 67.6073 64.66 66.9673 63.46C66.3273 62.26 66.0073 60.81 66.0073 59.11C66.0073 57.39 66.3273 55.94 66.9673 54.76C67.6273 53.56 68.5073 52.65 69.6073 52.03C70.7073 51.41 71.9373 51.1 73.2973 51.1C74.7973 51.1 76.1373 51.44 77.3173 52.12C78.5173 52.78 79.4573 53.71 80.1373 54.91C80.8173 56.11 81.1573 57.51 81.1573 59.11C81.1573 60.69 80.8173 62.09 80.1373 63.31C79.4573 64.51 78.5173 65.45 77.3173 66.13C76.1373 66.81 74.7973 67.15 73.2973 67.15ZM65.1673 67V44.74H67.2973V55.9L66.9973 59.08L67.2073 62.26V67H65.1673ZM73.1473 65.26C74.2673 65.26 75.2673 65.01 76.1473 64.51C77.0273 63.99 77.7273 63.27 78.2473 62.35C78.7673 61.41 79.0273 60.33 79.0273 59.11C79.0273 57.87 78.7673 56.79 78.2473 55.87C77.7273 54.95 77.0273 54.24 76.1473 53.74C75.2673 53.22 74.2673 52.96 73.1473 52.96C72.0273 52.96 71.0173 53.22 70.1173 53.74C69.2373 54.24 68.5373 54.95 68.0173 55.87C67.5173 56.79 67.2673 57.87 67.2673 59.11C67.2673 60.33 67.5173 61.41 68.0173 62.35C68.5373 63.27 69.2373 63.99 70.1173 64.51C71.0173 65.01 72.0273 65.26 73.1473 65.26ZM92.1893 67.15C90.5493 67.15 89.1093 66.81 87.8693 66.13C86.6293 65.43 85.6593 64.48 84.9593 63.28C84.2593 62.06 83.9093 60.67 83.9093 59.11C83.9093 57.55 84.2393 56.17 84.8993 54.97C85.5793 53.77 86.4993 52.83 87.6593 52.15C88.8393 51.45 90.1593 51.1 91.6193 51.1C93.0993 51.1 94.4093 51.44 95.5493 52.12C96.7093 52.78 97.6193 53.72 98.2793 54.94C98.9393 56.14 99.2693 57.53 99.2693 59.11C99.2693 59.21 99.2593 59.32 99.2393 59.44C99.2393 59.54 99.2393 59.65 99.2393 59.77H85.5293V58.18H98.0993L97.2593 58.81C97.2593 57.67 97.0093 56.66 96.5093 55.78C96.0293 54.88 95.3693 54.18 94.5293 53.68C93.6893 53.18 92.7193 52.93 91.6193 52.93C90.5393 52.93 89.5693 53.18 88.7093 53.68C87.8493 54.18 87.1793 54.88 86.6993 55.78C86.2193 56.68 85.9793 57.71 85.9793 58.87V59.2C85.9793 60.4 86.2393 61.46 86.7593 62.38C87.2993 63.28 88.0393 63.99 88.9793 64.51C89.9393 65.01 91.0293 65.26 92.2493 65.26C93.2093 65.26 94.0993 65.09 94.9193 64.75C95.7593 64.41 96.4793 63.89 97.0793 63.19L98.2793 64.57C97.5793 65.41 96.6993 66.05 95.6393 66.49C94.5993 66.93 93.4493 67.15 92.1893 67.15ZM111.645 51.1C112.925 51.1 114.045 51.35 115.005 51.85C115.985 52.33 116.745 53.07 117.285 54.07C117.845 55.07 118.125 56.33 118.125 57.85V67H115.995V58.06C115.995 56.4 115.575 55.15 114.735 54.31C113.915 53.45 112.755 53.02 111.255 53.02C110.135 53.02 109.155 53.25 108.315 53.71C107.495 54.15 106.855 54.8 106.395 55.66C105.955 56.5 105.735 57.52 105.735 58.72V67H103.605V51.25H105.645V55.57L105.315 54.76C105.815 53.62 106.615 52.73 107.715 52.09C108.815 51.43 110.125 51.1 111.645 51.1Z" fill="#10002B"/>
<path d="M42.2 104.15C40.9 104.15 39.67 103.97 38.51 103.61C37.35 103.23 36.44 102.76 35.78 102.2L36.74 100.52C37.38 101 38.2 101.42 39.2 101.78C40.2 102.12 41.25 102.29 42.35 102.29C43.85 102.29 44.93 102.06 45.59 101.6C46.25 101.12 46.58 100.49 46.58 99.71C46.58 99.13 46.39 98.68 46.01 98.36C45.65 98.02 45.17 97.77 44.57 97.61C43.97 97.43 43.3 97.28 42.56 97.16C41.82 97.04 41.08 96.9 40.34 96.74C39.62 96.58 38.96 96.35 38.36 96.05C37.76 95.73 37.27 95.3 36.89 94.76C36.53 94.22 36.35 93.5 36.35 92.6C36.35 91.74 36.59 90.97 37.07 90.29C37.55 89.61 38.25 89.08 39.17 88.7C40.11 88.3 41.25 88.1 42.59 88.1C43.61 88.1 44.63 88.24 45.65 88.52C46.67 88.78 47.51 89.13 48.17 89.57L47.24 91.28C46.54 90.8 45.79 90.46 44.99 90.26C44.19 90.04 43.39 89.93 42.59 89.93C41.17 89.93 40.12 90.18 39.44 90.68C38.78 91.16 38.45 91.78 38.45 92.54C38.45 93.14 38.63 93.61 38.99 93.95C39.37 94.29 39.86 94.56 40.46 94.76C41.08 94.94 41.75 95.09 42.47 95.21C43.21 95.33 43.94 95.48 44.66 95.66C45.4 95.82 46.07 96.05 46.67 96.35C47.29 96.63 47.78 97.04 48.14 97.58C48.52 98.1 48.71 98.79 48.71 99.65C48.71 100.57 48.45 101.37 47.93 102.05C47.43 102.71 46.69 103.23 45.71 103.61C44.75 103.97 43.58 104.15 42.2 104.15ZM60.6584 88.1C61.9384 88.1 63.0584 88.35 64.0184 88.85C64.9984 89.33 65.7584 90.07 66.2984 91.07C66.8584 92.07 67.1384 93.33 67.1384 94.85V104H65.0084V95.06C65.0084 93.4 64.5884 92.15 63.7484 91.31C62.9284 90.45 61.7684 90.02 60.2684 90.02C59.1484 90.02 58.1684 90.25 57.3284 90.71C56.5084 91.15 55.8684 91.8 55.4084 92.66C54.9684 93.5 54.7484 94.52 54.7484 95.72V104H52.6184V81.74H54.7484V92.57L54.3284 91.76C54.8284 90.62 55.6284 89.73 56.7284 89.09C57.8284 88.43 59.1384 88.1 60.6584 88.1ZM82.7619 104V100.52L82.6719 99.95V94.13C82.6719 92.79 82.2919 91.76 81.5319 91.04C80.7919 90.32 79.6819 89.96 78.2019 89.96C77.1819 89.96 76.2119 90.13 75.2919 90.47C74.3719 90.81 73.5919 91.26 72.9519 91.82L71.9919 90.23C72.7919 89.55 73.7519 89.03 74.8719 88.67C75.9919 88.29 77.1719 88.1 78.4119 88.1C80.4519 88.1 82.0219 88.61 83.1219 89.63C84.2419 90.63 84.8019 92.16 84.8019 94.22V104H82.7619ZM77.3319 104.15C76.1519 104.15 75.1219 103.96 74.2419 103.58C73.3819 103.18 72.7219 102.64 72.2619 101.96C71.8019 101.26 71.5719 100.46 71.5719 99.56C71.5719 98.74 71.7619 98 72.1419 97.34C72.5419 96.66 73.1819 96.12 74.0619 95.72C74.9619 95.3 76.1619 95.09 77.6619 95.09H83.0919V96.68H77.7219C76.2019 96.68 75.1419 96.95 74.5419 97.49C73.9619 98.03 73.6719 98.7 73.6719 99.5C73.6719 100.4 74.0219 101.12 74.7219 101.66C75.4219 102.2 76.4019 102.47 77.6619 102.47C78.8619 102.47 79.8919 102.2 80.7519 101.66C81.6319 101.1 82.2719 100.3 82.6719 99.26L83.1519 100.73C82.7519 101.77 82.0519 102.6 81.0519 103.22C80.0719 103.84 78.8319 104.15 77.3319 104.15ZM98.6272 88.1C99.9072 88.1 101.027 88.35 101.987 88.85C102.967 89.33 103.727 90.07 104.267 91.07C104.827 92.07 105.107 93.33 105.107 94.85V104H102.977V95.06C102.977 93.4 102.557 92.15 101.717 91.31C100.897 90.45 99.7372 90.02 98.2372 90.02C97.1172 90.02 96.1372 90.25 95.2972 90.71C94.4772 91.15 93.8372 91.8 93.3772 92.66C92.9372 93.5 92.7172 94.52 92.7172 95.72V104H90.5872V81.74H92.7172V92.57L92.2972 91.76C92.7972 90.62 93.5972 89.73 94.6972 89.09C95.7972 88.43 97.1072 88.1 98.6272 88.1ZM110.861 104V88.25H112.991V104H110.861ZM111.941 84.77C111.501 84.77 111.131 84.62 110.831 84.32C110.531 84.02 110.381 83.66 110.381 83.24C110.381 82.82 110.531 82.47 110.831 82.19C111.131 81.89 111.501 81.74 111.941 81.74C112.381 81.74 112.751 81.88 113.051 82.16C113.351 82.44 113.501 82.79 113.501 83.21C113.501 83.65 113.351 84.02 113.051 84.32C112.771 84.62 112.401 84.77 111.941 84.77Z" fill="#10002B"/>
</svg>
